<svg width="25" height="25" viewBox="0 0 25 25" fill="none" xmlns="http://www.w3.org/2000/svg">
<g clip-path="url(#clip0_441_831)">
<path d="M23 10.5556V6.88889C23 5.53886 21.8248 4.44444 20.375 4.44444H4.625C3.17525 4.44444 2 5.53886 2 6.88889V10.5556M23 10.5556V21.5556C23 22.9056 21.8248 24 20.375 24H4.625C3.17525 24 2 22.9056 2 21.5556V10.5556M23 10.5556H2M7.25 2V6.88889M17.75 2V6.88889" stroke="#4C4C4C" stroke-opacity="0.5" stroke-width="2" stroke-linecap="round"/>
<path d="M8.85417 12.4995H6.77083C6.48319 12.4995 6.25 12.7327 6.25 13.0203V15.1037C6.25 15.3913 6.48319 15.6245 6.77083 15.6245H8.85417C9.14181 15.6245 9.375 15.3913 9.375 15.1037V13.0203C9.375 12.7327 9.14181 12.4995 8.85417 12.4995Z" fill="#4C4C4C" fill-opacity="0.5"/>
<path d="M13.5417 12.4995H11.4583C11.1707 12.4995 10.9375 12.7327 10.9375 13.0203V15.1037C10.9375 15.3913 11.1707 15.6245 11.4583 15.6245H13.5417C13.8293 15.6245 14.0625 15.3913 14.0625 15.1037V13.0203C14.0625 12.7327 13.8293 12.4995 13.5417 12.4995Z" fill="#4C4C4C" fill-opacity="0.5"/>
<path d="M18.2292 12.4995H16.1458C15.8582 12.4995 15.625 12.7327 15.625 13.0203V15.1037C15.625 15.3913 15.8582 15.6245 16.1458 15.6245H18.2292C18.5168 15.6245 18.75 15.3913 18.75 15.1037V13.0203C18.75 12.7327 18.5168 12.4995 18.2292 12.4995Z" fill="#4C4C4C" fill-opacity="0.5"/>
</g>
<defs>
<clipPath id="clip0_441_831">
<rect width="25" height="25" fill="white" transform="translate(0 -0.000488281)"/>
</clipPath>
</defs>
</svg>
