<svg width="25" height="25" viewBox="0 0 25 25" fill="none" xmlns="http://www.w3.org/2000/svg">
<g clip-path="url(#clip0_420_32)">
<path d="M7.66129 2.41935C8.32937 2.41935 8.87097 1.87776 8.87097 1.20968C8.87097 0.541597 8.32937 0 7.66129 0V2.41935ZM0 10.8871C0 11.5552 0.541597 12.0968 1.20968 12.0968C1.87776 12.0968 2.41935 11.5552 2.41935 10.8871H0ZM7.66129 0C6.99321 0 6.45161 0.541597 6.45161 1.20968C6.45161 1.87776 6.99321 2.41935 7.66129 2.41935V0ZM22.5806 10.8871C22.5806 11.5552 23.1223 12.0968 23.7903 12.0968C24.4584 12.0968 25 11.5552 25 10.8871H22.5806ZM8.87097 1.20968C8.87097 0.541597 8.32937 0 7.66129 0C6.99321 0 6.45161 0.541597 6.45161 1.20968H8.87097ZM6.45161 10.8871C6.45161 11.5552 6.99321 12.0968 7.66129 12.0968C8.32937 12.0968 8.87097 11.5552 8.87097 10.8871H6.45161ZM7.66129 12.0968C8.32937 12.0968 8.87097 11.5552 8.87097 10.8871C8.87097 10.219 8.32937 9.67742 7.66129 9.67742V12.0968ZM1.20968 9.67742C0.541597 9.67742 0 10.219 0 10.8871C0 11.5552 0.541597 12.0968 1.20968 12.0968V9.67742ZM7.66129 9.67742C6.99321 9.67742 6.45161 10.219 6.45161 10.8871C6.45161 11.5552 6.99321 12.0968 7.66129 12.0968V9.67742ZM23.7903 12.0968C24.4584 12.0968 25 11.5552 25 10.8871C25 10.219 24.4584 9.67742 23.7903 9.67742V12.0968ZM2.41935 10.8871C2.41935 10.219 1.87776 9.67742 1.20968 9.67742C0.541597 9.67742 0 10.219 0 10.8871H2.41935ZM25 10.8871C25 10.219 24.4584 9.67742 23.7903 9.67742C23.1223 9.67742 22.5806 10.219 22.5806 10.8871H25ZM7.66129 0C3.43008 0 0 3.43008 0 7.66129H2.41935C2.41935 4.76624 4.76624 2.41935 7.66129 2.41935V0ZM0 7.66129V10.8871H2.41935V7.66129H0ZM7.66129 2.41935H17.3387V0H7.66129V2.41935ZM17.3387 2.41935C20.2337 2.41935 22.5806 4.76624 22.5806 7.66129H25C25 3.43008 21.57 0 17.3387 0V2.41935ZM22.5806 7.66129V10.8871H25V7.66129H22.5806ZM6.45161 1.20968V10.8871H8.87097V1.20968H6.45161ZM7.66129 9.67742H1.20968V12.0968H7.66129V9.67742ZM7.66129 12.0968H23.7903V9.67742H7.66129V12.0968ZM0 10.8871V17.3387H2.41935V10.8871H0ZM0 17.3387C0 21.57 3.43008 25 7.66129 25V22.5806C4.76624 22.5806 2.41935 20.2337 2.41935 17.3387H0ZM7.66129 25H17.3387V22.5806H7.66129V25ZM17.3387 25C21.57 25 25 21.57 25 17.3387H22.5806C22.5806 20.2337 20.2337 22.5806 17.3387 22.5806V25ZM25 17.3387V10.8871H22.5806V17.3387H25Z" fill="#D8D8D8"/>
</g>
<defs>
<clipPath id="clip0_420_32">
<rect width="25" height="25" fill="white"/>
</clipPath>
</defs>
</svg>
