<svg width="25" height="25" viewBox="0 0 25 25" fill="none" xmlns="http://www.w3.org/2000/svg">
<path d="M23.3333 23.3333L21.0779 21.0779M21.0779 21.0779C21.6669 20.4888 22.0313 19.675 22.0313 18.776C22.0313 16.9783 20.5738 15.5208 18.776 15.5208C16.9783 15.5208 15.5208 16.9783 15.5208 18.776C15.5208 20.5738 16.9783 22.0313 18.776 22.0313C19.675 22.0313 20.4888 21.6669 21.0779 21.0779ZM17.6042 10.3125H21.25C21.9793 10.3125 22.3439 10.3125 22.6224 10.1706C22.8674 10.0457 23.0665 9.84655 23.1914 9.60155C23.3333 9.32302 23.3333 8.9584 23.3333 8.22917V4.58333C23.3333 3.8541 23.3333 3.48948 23.1914 3.21095C23.0665 2.96595 22.8674 2.76676 22.6224 2.64191C22.3439 2.5 21.9793 2.5 21.25 2.5H17.6042C16.8749 2.5 16.5103 2.5 16.2318 2.64191C15.9867 2.76676 15.7876 2.96595 15.6628 3.21095C15.5208 3.48948 15.5208 3.8541 15.5208 4.58333V8.22917C15.5208 8.9584 15.5208 9.32302 15.6628 9.60155C15.7876 9.84655 15.9867 10.0457 16.2318 10.1706C16.5103 10.3125 16.8749 10.3125 17.6042 10.3125ZM4.58333 10.3125H8.22917C8.9584 10.3125 9.32302 10.3125 9.60155 10.1706C9.84655 10.0457 10.0457 9.84655 10.1706 9.60155C10.3125 9.32302 10.3125 8.9584 10.3125 8.22917V4.58333C10.3125 3.8541 10.3125 3.48948 10.1706 3.21095C10.0457 2.96595 9.84655 2.76676 9.60155 2.64191C9.32302 2.5 8.9584 2.5 8.22917 2.5H4.58333C3.8541 2.5 3.48948 2.5 3.21095 2.64191C2.96595 2.76676 2.76676 2.96595 2.64191 3.21095C2.5 3.48948 2.5 3.8541 2.5 4.58333V8.22917C2.5 8.9584 2.5 9.32302 2.64191 9.60155C2.76676 9.84655 2.96595 10.0457 3.21095 10.1706C3.48948 10.3125 3.8541 10.3125 4.58333 10.3125ZM4.58333 23.3333H8.22917C8.9584 23.3333 9.32302 23.3333 9.60155 23.1914C9.84655 23.0665 10.0457 22.8674 10.1706 22.6224C10.3125 22.3439 10.3125 21.9793 10.3125 21.25V17.6042C10.3125 16.8749 10.3125 16.5103 10.1706 16.2318C10.0457 15.9867 9.84655 15.7876 9.60155 15.6628C9.32302 15.5208 8.9584 15.5208 8.22917 15.5208H4.58333C3.8541 15.5208 3.48948 15.5208 3.21095 15.6628C2.96595 15.7876 2.76676 15.9867 2.64191 16.2318C2.5 16.5103 2.5 16.8749 2.5 17.6042V21.25C2.5 21.9793 2.5 22.3439 2.64191 22.6224C2.76676 22.8674 2.96595 23.0665 3.21095 23.1914C3.48948 23.3333 3.8541 23.3333 4.58333 23.3333Z" stroke="#D8D8D8" stroke-width="2" stroke-linecap="round" stroke-linejoin="round"/>
</svg>
