<svg width="25" height="25" viewBox="0 0 25 25" fill="none" xmlns="http://www.w3.org/2000/svg">
<g clip-path="url(#clip0_441_1138)">
<path fill-rule="evenodd" clip-rule="evenodd" d="M11.5625 12.6562C11.5625 13.3462 11.0025 13.9062 10.3125 13.9062C9.6225 13.9062 9.0625 13.3462 9.0625 12.6562C9.0625 11.9663 9.6225 11.4062 10.3125 11.4062C11.0025 11.4062 11.5625 11.9663 11.5625 12.6562ZM17.5 22.5H7.5V3.75C7.5 3.06 8.06 2.5 8.75 2.5H16.25C16.94 2.5 17.5 3.06 17.5 3.75V22.5ZM23.75 22.5H20V2.5C20 1.11875 18.8813 0 17.5 0H7.5C6.12 0 5 1.11875 5 2.5V22.5H1.25C0.56 22.5 0 23.06 0 23.75C0 24.44 0.56 25 1.25 25H23.75C24.44 25 25 24.44 25 23.75C25 23.06 24.44 22.5 23.75 22.5Z" fill="#4C4C4C"/>
</g>
<defs>
<clipPath id="clip0_441_1138">
<rect width="25" height="25" fill="white"/>
</clipPath>
</defs>
</svg>
