<svg width="25" height="25" viewBox="0 0 25 25" fill="none" xmlns="http://www.w3.org/2000/svg">
<path d="M9.37516 4.64552C10.3247 4.3435 11.3652 4.16675 12.5002 4.16675C16.8563 4.16675 19.821 6.77046 21.5888 9.06709C22.4741 10.2173 22.9168 10.7924 22.9168 12.5001C22.9168 14.2078 22.4741 14.7829 21.5888 15.9331C19.821 18.2297 16.8563 20.8334 12.5002 20.8334C8.14403 20.8334 5.17929 18.2297 3.41151 15.9331C2.52616 14.7829 2.0835 14.2078 2.0835 12.5001C2.0835 10.7924 2.52616 10.2173 3.41151 9.06709C3.91279 8.41585 4.5103 7.73993 5.2085 7.10568" stroke="#4C4C4C" stroke-width="2" stroke-linecap="round"/>
<path d="M15.625 12.5C15.625 14.2259 14.2259 15.625 12.5 15.625C10.7741 15.625 9.375 14.2259 9.375 12.5C9.375 10.7741 10.7741 9.375 12.5 9.375C14.2259 9.375 15.625 10.7741 15.625 12.5Z" stroke="#4C4C4C" stroke-width="2"/>
</svg>
