<svg width="25" height="25" viewBox="0 0 25 25" fill="none" xmlns="http://www.w3.org/2000/svg">
<g clip-path="url(#clip0_419_478)">
<path d="M12.5 0C5.59644 0 0 5.59644 0 12.5C0 19.4036 5.59644 25 12.5 25C19.4036 25 25 19.4036 25 12.5C25 5.59644 19.4036 0 12.5 0ZM12.5 4.20259C13.8898 4.20259 15.0165 5.32925 15.0165 6.71909C15.0165 8.10894 13.8898 9.2356 12.5 9.2356C11.1102 9.2356 9.9835 8.10894 9.9835 6.71909C9.9835 5.32925 11.1102 4.20259 12.5 4.20259ZM15.1607 20.7974H9.83936V18.6688H11.5809V13.4926H10.5166V11.3641H13.7094V11.5576V13.4926V18.6688H15.1607V20.7974Z" fill="#4C4C4C"/>
</g>
<defs>
<clipPath id="clip0_419_478">
<rect width="25" height="25" fill="white"/>
</clipPath>
</defs>
</svg>
