<svg width="25" height="25" viewBox="0 0 25 25" fill="none" xmlns="http://www.w3.org/2000/svg">
<path d="M23 7.90625V4.625C23 3.17525 21.9056 2 20.5556 2H3.44444C2.09441 2 1 3.17525 1 4.625V11.1875C1 12.6373 2.09441 13.8125 3.44444 13.8125H10.625M20.5556 15.125V12.5C20.5556 11.0502 19.4612 9.875 18.1111 9.875C16.761 9.875 15.6667 11.0502 15.6667 12.5V15.125M14.4444 23H21.7778C22.4528 23 23 22.4124 23 21.6875V16.4375C23 15.7126 22.4528 15.125 21.7778 15.125H14.4444C13.7694 15.125 13.2222 15.7126 13.2222 16.4375V21.6875C13.2222 22.4124 13.7694 23 14.4444 23Z" stroke="#D8D8D8" stroke-width="2" stroke-linecap="round" stroke-linejoin="round"/>
<path d="M7.03059 9.8619C7.80714 9.8619 8.43666 9.1996 8.43666 8.38261C8.43666 7.56562 7.80714 6.90332 7.03059 6.90332C6.25403 6.90332 5.62451 7.56562 5.62451 8.38261C5.62451 9.1996 6.25403 9.8619 7.03059 9.8619Z" fill="#D8D8D8"/>
<path d="M11.2484 9.8619C12.0249 9.8619 12.6544 9.1996 12.6544 8.38261C12.6544 7.56562 12.0249 6.90332 11.2484 6.90332C10.4718 6.90332 9.84229 7.56562 9.84229 8.38261C9.84229 9.1996 10.4718 9.8619 11.2484 9.8619Z" fill="#D8D8D8"/>
</svg>
