<svg width="30" height="30" viewBox="0 0 30 30" fill="none" xmlns="http://www.w3.org/2000/svg">
<path fill-rule="evenodd" clip-rule="evenodd" d="M17.624 2.98886C19.5259 1.08705 22.6094 1.08705 24.5111 2.98886C26.413 4.89069 26.413 7.97415 24.5111 9.87596L15.0186 19.3685C14.4836 19.9035 14.1569 20.2303 13.7927 20.5144C13.3637 20.849 12.8995 21.1359 12.4083 21.37C11.9914 21.5686 11.553 21.7147 10.8352 21.954L7.49441 23.0676L6.69232 23.335C5.97438 23.5742 5.18286 23.3874 4.64775 22.8522C4.11262 22.3171 3.92577 21.5256 4.16508 20.8077L5.54603 16.6648C5.78527 15.947 5.93137 15.5086 6.13006 15.0917C6.36415 14.6005 6.65105 14.1363 6.9857 13.7073C7.26972 13.3431 7.59648 13.0164 8.13156 12.4814L17.624 2.98886ZM7.45115 21.1056L6.39445 20.0489L7.30497 17.3172C7.57007 16.522 7.67957 16.1986 7.82267 15.8984C7.99817 15.5301 8.21326 15.1821 8.46415 14.8604C8.66871 14.5981 8.90897 14.3556 9.50176 13.7627L16.8655 6.39909C17.1694 7.16159 17.6837 8.08186 18.551 8.94909C19.4181 9.81632 20.3385 10.3306 21.1009 10.6345L13.7372 17.9982C13.1444 18.591 12.9019 18.8312 12.6396 19.0359C12.3179 19.2867 11.9699 19.5019 11.6017 19.6774C11.3014 19.8205 10.978 19.93 10.1827 20.195L7.45115 21.1056ZM22.595 9.14051C22.4401 9.10652 22.2466 9.0554 22.0266 8.97906C21.4216 8.76915 20.6257 8.37222 19.8767 7.62326C19.1277 6.8743 18.7309 6.07845 18.521 5.47341C18.4446 5.25338 18.3935 5.05984 18.3595 4.90505L18.9499 4.31469C20.1195 3.1451 22.0157 3.1451 23.1854 4.31469C24.3549 5.48428 24.3549 7.38055 23.1854 8.55014L22.595 9.14051ZM4.06252 27.5C4.06252 26.9822 4.48226 26.5625 5.00002 26.5625H25V28.4375H5.00002C4.48226 28.4375 4.06252 28.0177 4.06252 27.5Z" fill="white"/>
</svg>
