<svg width="25" height="25" viewBox="0 0 25 25" fill="none" xmlns="http://www.w3.org/2000/svg">
<g clip-path="url(#clip0_419_280)">
<path d="M12.5 16C14.433 16 16 14.433 16 12.5C16 10.567 14.433 9 12.5 9C10.567 9 9 10.567 9 12.5C9 14.433 10.567 16 12.5 16Z" stroke="#D8D8D8" stroke-width="2"/>
<path d="M2.32884 10.9351C2.90524 11.2765 3.2761 11.8582 3.2761 12.4999C3.27609 13.1417 2.90523 13.7234 2.32884 14.0648C1.93662 14.2971 1.68391 14.4828 1.50412 14.7037C1.11025 15.1878 0.936427 15.7994 1.02088 16.4041C1.08421 16.8577 1.36838 17.3217 1.93671 18.2499C2.50505 19.1779 2.78921 19.642 3.17418 19.9205C3.68748 20.2918 4.33621 20.4557 4.97768 20.3761C5.27045 20.3398 5.56735 20.2263 5.9768 20.0223C6.57872 19.7223 7.29854 19.7104 7.88814 20.0313C8.47766 20.3523 8.82651 20.9459 8.85194 21.5873C8.86927 22.0237 8.91349 22.323 9.02652 22.5802C9.27411 23.1437 9.74902 23.5915 10.3467 23.825C10.7951 24 11.3634 24 12.5001 24C13.6368 24 14.205 24 14.6534 23.825C15.2511 23.5915 15.7261 23.1437 15.9737 22.5802C16.0866 22.323 16.1309 22.0237 16.1482 21.5874C16.1736 20.9459 16.5224 20.3523 17.1121 20.0313C17.7016 19.7105 18.4213 19.7225 19.0232 20.0224C19.4328 20.2264 19.7297 20.3399 20.0224 20.3762C20.6639 20.4559 21.3126 20.2919 21.8259 19.9206C22.2109 19.6422 22.4951 19.178 23.0635 18.25C23.3164 17.8368 23.5132 17.5156 23.6591 17.2463M22.6712 14.0649C22.0949 13.7235 21.7241 13.1418 21.7239 12.5001C21.7239 11.8583 22.0949 11.2765 22.6712 10.9351C23.0635 10.7028 23.3161 10.5171 23.4959 10.2961C23.8897 9.8122 24.0635 9.20056 23.9791 8.59577C23.9158 8.14219 23.6316 7.67814 23.0632 6.75006C22.4949 5.82196 22.2107 5.35792 21.8258 5.07942C21.3125 4.70807 20.6637 4.54419 20.0223 4.6238C19.7295 4.66015 19.4326 4.77361 19.0232 4.97765C18.4212 5.27759 17.7015 5.28955 17.1119 4.9686C16.5224 4.64769 16.1736 4.05406 16.1482 3.41273C16.1309 2.9763 16.0866 2.6771 15.9737 2.41982C15.7261 1.85627 15.2511 1.40851 14.6534 1.17508C14.205 1 13.6368 1 12.5001 1C11.3634 1 10.7951 1 10.3467 1.17508C9.74902 1.40851 9.27411 1.85627 9.02652 2.41982C8.91349 2.67708 8.86927 2.97625 8.85194 3.41263C8.8265 4.05401 8.47764 4.6477 7.88809 4.9686C7.29853 5.28952 6.57877 5.27753 5.97691 4.97762C5.56741 4.77356 5.27049 4.66009 4.97769 4.62374C4.33622 4.54413 3.68749 4.70801 3.17419 5.07936C2.78923 5.35787 2.50506 5.82192 1.93672 6.75C1.68371 7.16318 1.48701 7.48438 1.34104 7.75364" stroke="#D8D8D8" stroke-width="2" stroke-linecap="round"/>
</g>
<defs>
<clipPath id="clip0_419_280">
<rect width="25" height="25" fill="white"/>
</clipPath>
</defs>
</svg>
