<svg width="25" height="25" viewBox="0 0 25 25" fill="none" xmlns="http://www.w3.org/2000/svg">
<path d="M18.4134 13.0769C17.3294 13.0769 16.2697 13.3983 15.3684 14.0006C14.4671 14.6028 13.7646 15.4588 13.3498 16.4603C12.935 17.4618 12.8265 18.5638 13.0379 19.6269C13.2494 20.6901 13.7714 21.6667 14.5379 22.4332C15.3044 23.1997 16.281 23.7217 17.3441 23.9331C18.4073 24.1446 19.5093 24.0361 20.5108 23.6212C21.5123 23.2064 22.3682 22.5039 22.9705 21.6026C23.5727 20.7013 23.8942 19.6417 23.8942 18.5577C23.8866 17.1064 23.3067 15.7168 22.2805 14.6906C21.2543 13.6644 19.8646 13.0845 18.4134 13.0769ZM19.3749 19.0384C19.2258 19.0348 19.0789 19.0021 18.9422 18.9423L16.8749 21.0096C16.759 21.1244 16.6051 21.1928 16.4422 21.2019C16.3596 21.2099 16.2764 21.1964 16.2006 21.1627C16.1248 21.129 16.0589 21.0763 16.0095 21.0096C15.8936 20.8858 15.8291 20.7225 15.8291 20.5529C15.8291 20.3832 15.8936 20.22 16.0095 20.0961L18.0768 18.0288C18.0221 17.8906 17.9896 17.7445 17.9807 17.5961C17.9588 17.3669 17.9845 17.1356 18.0564 16.9168C18.1282 16.698 18.2446 16.4965 18.3981 16.3249C18.5517 16.1533 18.7391 16.0153 18.9486 15.9197C19.158 15.824 19.3851 15.7728 19.6153 15.7692C19.7644 15.7729 19.9114 15.8055 20.048 15.8654C20.1442 15.8654 20.1442 15.9615 20.0961 16.0096L19.1345 16.9231C19.1123 16.9343 19.0936 16.9515 19.0805 16.9727C19.0675 16.9939 19.0606 17.0183 19.0606 17.0433C19.0606 17.0682 19.0675 17.0926 19.0805 17.1138C19.0936 17.135 19.1123 17.1522 19.1345 17.1634L19.7595 17.7884C19.7766 17.8104 19.7985 17.8282 19.8235 17.8404C19.8485 17.8526 19.8759 17.859 19.9038 17.859C19.9316 17.859 19.9591 17.8526 19.9841 17.8404C20.0091 17.8282 20.0309 17.8104 20.048 17.7884L20.9615 16.875C21.0095 16.8269 21.1538 16.8269 21.1538 16.9231C21.2037 17.0627 21.236 17.2081 21.2499 17.3557C21.2463 17.5923 21.1938 17.8255 21.0958 18.0408C20.9977 18.2561 20.8562 18.4488 20.6801 18.6068C20.5041 18.7649 20.2972 18.8848 20.0726 18.959C19.848 19.0333 19.6105 19.0603 19.3749 19.0384Z" fill="#D8D8D8"/>
<path d="M10.4329 13.3653C13.8581 13.3653 16.6348 10.5886 16.6348 7.16335C16.6348 3.73812 13.8581 0.961426 10.4329 0.961426C7.00765 0.961426 4.23096 3.73812 4.23096 7.16335C4.23096 10.5886 7.00765 13.3653 10.4329 13.3653Z" fill="#D8D8D8"/>
<path d="M12.1153 23.9424C13.173 23.9424 12.5961 23.2213 12.5961 23.2213C11.5346 21.8991 10.9578 20.2534 10.9615 18.5578C10.9564 17.4951 11.1862 16.4444 11.6346 15.4809C11.6548 15.4259 11.6877 15.3764 11.7307 15.3366C12.0673 14.6636 11.3942 14.6155 11.3942 14.6155C11.0914 14.5755 10.786 14.5594 10.4807 14.5674C8.21721 14.5762 6.03177 15.3958 4.32065 16.8776C2.60954 18.3594 1.48602 20.4053 1.15381 22.6443C1.15381 23.1251 1.29804 23.9905 2.78842 23.9905H11.9711C12.0673 23.9424 12.0673 23.9424 12.1153 23.9424Z" fill="#D8D8D8"/>
</svg>
