<svg width="345" height="91" viewBox="0 0 345 91" fill="none" xmlns="http://www.w3.org/2000/svg">
<path d="M153.275 21.706C156.39 21.706 159.12 22.154 161.467 23.05C163.856 23.9034 165.051 25.0767 165.051 26.57C165.051 28.0634 164.475 29.9194 163.323 32.138C162.214 34.314 161.275 35.402 160.507 35.402C160.294 35.402 160.038 35.2954 159.739 35.082C159.483 34.826 158.843 34.57 157.819 34.314C156.838 34.0154 155.984 33.866 155.259 33.866C152.784 33.866 150.779 34.7407 149.243 36.49C147.75 38.2394 147.003 40.9274 147.003 44.554C147.003 48.138 147.771 50.8047 149.307 52.554C150.886 54.3034 152.87 55.178 155.259 55.178C156.24 55.178 157.328 55.05 158.523 54.794C159.76 54.4954 160.635 54.09 161.147 53.578C161.232 53.4927 161.403 53.45 161.659 53.45C161.915 53.45 162.384 53.9407 163.067 54.922C163.792 55.8607 164.454 57.1194 165.051 58.698C165.648 60.234 165.947 61.4287 165.947 62.282C165.947 63.946 164.667 65.2687 162.107 66.25C159.547 67.2314 156.518 67.722 153.019 67.722C147.387 67.722 142.758 65.738 139.131 61.77C135.504 57.802 133.691 52.2127 133.691 45.002C133.691 37.7487 135.547 32.0527 139.259 27.914C143.014 23.7754 147.686 21.706 153.275 21.706ZM194.718 65.354C192.03 66.9327 188.574 67.722 184.35 67.722C180.126 67.722 176.563 66.2927 173.662 63.434C170.761 60.5327 169.31 56.5434 169.31 51.466C169.31 46.346 170.697 42.2287 173.47 39.114C176.286 35.9994 179.827 34.442 184.094 34.442C188.361 34.442 191.646 35.53 193.95 37.706C196.297 39.882 197.47 42.5274 197.47 45.642C197.47 52.554 193.502 56.01 185.566 56.01H181.15C181.15 57.29 181.491 58.186 182.174 58.698C182.899 59.1674 183.945 59.402 185.31 59.402C188.297 59.402 191.134 58.7194 193.822 57.354C193.865 57.3114 194.057 57.61 194.398 58.25C195.422 60.0847 195.934 61.642 195.934 62.922C195.934 64.1594 195.529 64.97 194.718 65.354ZM186.718 46.858C186.718 45.066 185.843 44.17 184.094 44.17C183.283 44.17 182.579 44.426 181.982 44.938C181.427 45.4074 181.15 46.1114 181.15 47.05V49.034H184.606C186.014 49.034 186.718 48.3087 186.718 46.858ZM213.299 66.57C213.299 66.954 211.123 67.146 206.771 67.146C203.358 67.1034 201.651 66.9327 201.651 66.634V23.05C201.651 22.41 203.72 22.09 207.859 22.09C211.486 22.218 213.299 22.4314 213.299 22.73V66.57ZM229.584 51.21C229.584 55.3914 231.163 57.482 234.32 57.482C236.368 57.482 238.075 57.0767 239.44 56.266C240.08 56.266 240.592 57.3754 240.976 59.594C241.403 61.77 241.616 63.2634 241.616 64.074C241.616 64.842 241.51 65.354 241.296 65.61C239.035 67.018 235.942 67.722 232.016 67.722C228.091 67.722 224.742 66.2714 221.968 63.37C219.238 60.426 217.872 56.4367 217.872 51.402C217.872 46.3247 219.216 42.2287 221.904 39.114C224.635 35.9994 228.24 34.442 232.72 34.442C237.243 34.442 240.379 35.53 242.128 37.706C242.512 38.1754 242.704 38.8794 242.704 39.818C242.704 40.714 242.534 41.8234 242.192 43.146C241.424 45.8767 240.422 47.4554 239.184 47.882C239.014 47.9247 238.758 47.946 238.416 47.946C238.118 47.946 237.734 47.69 237.264 47.178C235.6 45.514 234.256 44.682 233.232 44.682C232.251 44.682 231.398 45.194 230.672 46.218C229.947 47.242 229.584 48.906 229.584 51.21ZM257.925 66.698C257.925 67.0394 255.963 67.21 252.037 67.21C248.155 67.21 246.213 67.0607 246.213 66.762V35.338C246.213 35.0394 248.155 34.89 252.037 34.89C255.963 34.89 257.925 35.018 257.925 35.274V66.698ZM257.925 31.498C257.925 31.7967 255.963 31.946 252.037 31.946C248.155 31.946 246.213 31.818 246.213 31.562V22.346C246.213 21.9194 248.155 21.706 252.037 21.706C255.963 21.706 257.925 21.834 257.925 22.09V31.498ZM263.393 35.466C263.393 34.9967 265.228 34.762 268.897 34.762C272.567 34.762 274.401 34.9967 274.401 35.466V54.154C274.401 56.2874 275.084 57.354 276.449 57.354C277.473 57.354 278.625 56.906 279.905 56.01V35.466C279.905 35.0394 281.719 34.826 285.345 34.826C288.972 34.826 290.785 35.0394 290.785 35.466V56.458H292.449C293.9 56.458 294.625 57.8447 294.625 60.618C294.625 62.026 294.327 63.4554 293.729 64.906C292.876 66.7834 291.724 67.722 290.273 67.722C287.415 67.722 285.303 66.5487 283.937 64.202L283.873 64.266C281.271 66.57 278.476 67.722 275.489 67.722C271.351 67.722 268.3 66.698 266.337 64.65C264.375 62.5594 263.393 59.1247 263.393 54.346V35.466ZM299.87 55.562C303.326 57.6527 306.057 58.698 308.062 58.698C309.342 58.698 309.982 58.25 309.982 57.354C309.982 56.714 308.873 55.882 306.654 54.858C301.321 52.682 298.654 49.1194 298.654 44.17C298.654 41.0127 299.806 38.602 302.11 36.938C304.414 35.274 307.166 34.442 310.366 34.442C313.609 34.442 316.339 34.7834 318.558 35.466C320.819 36.1487 321.95 37.0447 321.95 38.154C321.95 39.0927 321.481 40.33 320.542 41.866C319.646 43.402 319.027 44.234 318.686 44.362C316.851 43.338 314.867 42.826 312.734 42.826C311.582 42.826 311.006 43.2314 311.006 44.042C311.006 44.554 311.219 45.002 311.646 45.386C312.115 45.7274 312.947 46.1754 314.142 46.73C315.337 47.242 316.318 47.7114 317.086 48.138C317.897 48.5647 318.793 49.162 319.774 49.93C321.822 51.5514 322.846 53.6634 322.846 56.266C322.846 59.6794 321.715 62.4527 319.454 64.586C317.193 66.6767 313.779 67.722 309.214 67.722C306.185 67.722 303.433 67.21 300.958 66.186C298.483 65.162 297.246 63.754 297.246 61.962C297.246 60.7674 297.523 59.5087 298.078 58.186C298.675 56.8634 299.273 55.9887 299.87 55.562Z" fill="#698EEE"/>
<rect width="90.4918" height="90.4918" rx="10" fill="#698EEE"/>
<path d="M45.2749 62.6931C53.6549 62.6931 60.7771 57.2531 63.3689 49.6786C63.4669 48.8646 64.1534 48.2339 64.9858 48.2339H83.2072C84.1068 48.2339 84.8361 48.9705 84.8361 49.8792C84.8361 50.7879 84.1068 51.5245 83.2072 51.5245H66.1694C62.9274 59.9844 54.7948 65.9837 45.2749 65.9837C34.8729 65.9837 26.1272 58.8211 23.608 49.1123H26.9968C29.4209 56.9805 36.6875 62.6931 45.2749 62.6931Z" fill="white"/>
<path d="M45.2749 24.0284C36.6875 24.0284 29.4209 29.741 26.9968 37.6091H26.9476C26.6746 38.1315 26.1315 38.4876 25.5061 38.4876H7.28465C6.38504 38.4876 5.65576 37.7509 5.65576 36.8423C5.65576 35.9336 6.38504 35.197 7.28465 35.197H24.3804C27.6224 26.7371 35.755 20.7378 45.2749 20.7378C55.6769 20.7378 64.4226 27.9004 66.9418 37.6091H63.553C61.1289 29.741 53.8623 24.0284 45.2749 24.0284Z" fill="white"/>
<path fill-rule="evenodd" clip-rule="evenodd" d="M58.1528 43.3607C58.1528 50.3491 52.5441 56.0143 45.6255 56.0143C38.7069 56.0143 33.0983 50.3491 33.0983 43.3607C33.0983 36.3724 38.7069 30.7072 45.6255 30.7072C52.5441 30.7072 58.1528 36.3724 58.1528 43.3607ZM54.895 43.3607C54.895 48.5317 50.7449 52.7236 45.6255 52.7236C40.5062 52.7236 36.3561 48.5317 36.3561 43.3607C36.3561 38.1898 40.5062 33.9978 45.6255 33.9978C50.7449 33.9978 54.895 38.1898 54.895 43.3607Z" fill="white"/>
</svg>
