<svg width="184" height="48" viewBox="0 0 184 48" fill="none" xmlns="http://www.w3.org/2000/svg">
<path d="M75.4873 10.3067C77.4339 10.3067 79.1406 10.5867 80.6073 11.1467C82.1006 11.6801 82.8473 12.4134 82.8473 13.3467C82.8473 14.2801 82.4873 15.4401 81.7673 16.8267C81.0739 18.1867 80.4873 18.8667 80.0073 18.8667C79.8739 18.8667 79.7139 18.8001 79.5273 18.6667C79.3673 18.5067 78.9673 18.3467 78.3273 18.1867C77.7139 18.0001 77.1806 17.9067 76.7273 17.9067C75.1806 17.9067 73.9273 18.4534 72.9673 19.5467C72.0339 20.6401 71.5673 22.3201 71.5673 24.5867C71.5673 26.8267 72.0473 28.4934 73.0073 29.5867C73.9939 30.6801 75.2339 31.2267 76.7273 31.2267C77.3406 31.2267 78.0206 31.1467 78.7673 30.9867C79.5406 30.8001 80.0873 30.5467 80.4073 30.2267C80.4606 30.1734 80.5673 30.1467 80.7273 30.1467C80.8873 30.1467 81.1806 30.4534 81.6073 31.0667C82.0606 31.6534 82.4739 32.4401 82.8473 33.4267C83.2206 34.3867 83.4073 35.1334 83.4073 35.6667C83.4073 36.7067 82.6073 37.5334 81.0073 38.1467C79.4073 38.7601 77.5139 39.0667 75.3273 39.0667C71.8073 39.0667 68.9139 37.8267 66.6473 35.3467C64.3806 32.8667 63.2473 29.3734 63.2473 24.8667C63.2473 20.3334 64.4073 16.7734 66.7273 14.1867C69.0739 11.6001 71.9939 10.3067 75.4873 10.3067ZM101.389 37.5867C99.7091 38.5734 97.5491 39.0667 94.9091 39.0667C92.2691 39.0667 90.0425 38.1734 88.2291 36.3867C86.4158 34.5734 85.5091 32.0801 85.5091 28.9067C85.5091 25.7067 86.3758 23.1334 88.1091 21.1867C89.8691 19.2401 92.0825 18.2667 94.7491 18.2667C97.4158 18.2667 99.4691 18.9467 100.909 20.3067C102.376 21.6667 103.109 23.3201 103.109 25.2667C103.109 29.5867 100.629 31.7467 95.6691 31.7467H92.9091C92.9091 32.5467 93.1225 33.1067 93.5491 33.4267C94.0025 33.7201 94.6558 33.8667 95.5091 33.8667C97.3758 33.8667 99.1491 33.4401 100.829 32.5867C100.856 32.5601 100.976 32.7467 101.189 33.1467C101.829 34.2934 102.149 35.2667 102.149 36.0667C102.149 36.8401 101.896 37.3467 101.389 37.5867ZM96.3891 26.0267C96.3891 24.9067 95.8425 24.3467 94.7491 24.3467C94.2425 24.3467 93.8025 24.5067 93.4291 24.8267C93.0825 25.1201 92.9091 25.5601 92.9091 26.1467V27.3867H95.0691C95.9491 27.3867 96.3891 26.9334 96.3891 26.0267ZM113.002 38.3467C113.002 38.5867 111.642 38.7067 108.922 38.7067C106.789 38.6801 105.722 38.5734 105.722 38.3867V11.1467C105.722 10.7467 107.016 10.5467 109.602 10.5467C111.869 10.6267 113.002 10.7601 113.002 10.9467V38.3467ZM117.461 31.4667C119.621 32.7734 121.327 33.4267 122.581 33.4267C123.381 33.4267 123.781 33.1467 123.781 32.5867C123.781 32.1867 123.087 31.6667 121.701 31.0267C118.367 29.6667 116.701 27.4401 116.701 24.3467C116.701 22.3734 117.421 20.8667 118.861 19.8267C120.301 18.7867 122.021 18.2667 124.021 18.2667C126.047 18.2667 127.754 18.4801 129.141 18.9067C130.554 19.3334 131.261 19.8934 131.261 20.5867C131.261 21.1734 130.967 21.9467 130.381 22.9067C129.821 23.8667 129.434 24.3867 129.221 24.4667C128.074 23.8267 126.834 23.5067 125.501 23.5067C124.781 23.5067 124.421 23.7601 124.421 24.2667C124.421 24.5867 124.554 24.8667 124.821 25.1067C125.114 25.3201 125.634 25.6001 126.381 25.9467C127.127 26.2667 127.741 26.5601 128.221 26.8267C128.727 27.0934 129.287 27.4667 129.901 27.9467C131.181 28.9601 131.821 30.2801 131.821 31.9067C131.821 34.0401 131.114 35.7734 129.701 37.1067C128.287 38.4134 126.154 39.0667 123.301 39.0667C121.407 39.0667 119.687 38.7467 118.141 38.1067C116.594 37.4667 115.821 36.5867 115.821 35.4667C115.821 34.7201 115.994 33.9334 116.341 33.1067C116.714 32.2801 117.087 31.7334 117.461 31.4667ZM141.949 38.4267C141.949 38.6401 140.722 38.7467 138.269 38.7467C135.842 38.7467 134.629 38.6534 134.629 38.4667V18.8267C134.629 18.6401 135.842 18.5467 138.269 18.5467C140.722 18.5467 141.949 18.6267 141.949 18.7867V38.4267ZM141.949 16.4267C141.949 16.6134 140.722 16.7067 138.269 16.7067C135.842 16.7067 134.629 16.6267 134.629 16.4667V10.7067C134.629 10.4401 135.842 10.3067 138.269 10.3067C140.722 10.3067 141.949 10.3867 141.949 10.5467V16.4267ZM145.366 18.9067C145.366 18.6134 146.513 18.4667 148.806 18.4667C151.099 18.4667 152.246 18.6134 152.246 18.9067V30.5867C152.246 31.9201 152.673 32.5867 153.526 32.5867C154.166 32.5867 154.886 32.3067 155.686 31.7467V18.9067C155.686 18.6401 156.819 18.5067 159.086 18.5067C161.353 18.5067 162.486 18.6401 162.486 18.9067V32.0267H163.526C164.433 32.0267 164.886 32.8934 164.886 34.6267C164.886 35.5067 164.699 36.4001 164.326 37.3067C163.793 38.4801 163.073 39.0667 162.166 39.0667C160.379 39.0667 159.059 38.3334 158.206 36.8667L158.166 36.9067C156.539 38.3467 154.793 39.0667 152.926 39.0667C150.339 39.0667 148.433 38.4267 147.206 37.1467C145.979 35.8401 145.366 33.6934 145.366 30.7067V18.9067ZM168.164 31.4667C170.324 32.7734 172.03 33.4267 173.284 33.4267C174.084 33.4267 174.484 33.1467 174.484 32.5867C174.484 32.1867 173.79 31.6667 172.404 31.0267C169.07 29.6667 167.404 27.4401 167.404 24.3467C167.404 22.3734 168.124 20.8667 169.564 19.8267C171.004 18.7867 172.724 18.2667 174.724 18.2667C176.75 18.2667 178.457 18.4801 179.844 18.9067C181.257 19.3334 181.964 19.8934 181.964 20.5867C181.964 21.1734 181.67 21.9467 181.084 22.9067C180.524 23.8667 180.137 24.3867 179.924 24.4667C178.777 23.8267 177.537 23.5067 176.204 23.5067C175.484 23.5067 175.124 23.7601 175.124 24.2667C175.124 24.5867 175.257 24.8667 175.524 25.1067C175.817 25.3201 176.337 25.6001 177.084 25.9467C177.83 26.2667 178.444 26.5601 178.924 26.8267C179.43 27.0934 179.99 27.4667 180.604 27.9467C181.884 28.9601 182.524 30.2801 182.524 31.9067C182.524 34.0401 181.817 35.7734 180.404 37.1067C178.99 38.4134 176.857 39.0667 174.004 39.0667C172.11 39.0667 170.39 38.7467 168.844 38.1067C167.297 37.4667 166.524 36.5867 166.524 35.4667C166.524 34.7201 166.697 33.9334 167.044 33.1067C167.417 32.2801 167.79 31.7334 168.164 31.4667Z" fill="white"/>
<path fill-rule="evenodd" clip-rule="evenodd" d="M10 0C4.47715 0 0 4.47715 0 10V38C0 43.5228 4.47715 48 10 48H38C43.5228 48 48 43.5229 48 38V10C48 4.47715 43.5229 0 38 0H10ZM24.0154 13.7455C19.4603 13.7455 15.6059 16.7756 14.32 20.9492H14.2939C14.1491 21.2262 13.861 21.4151 13.5293 21.4151H3.86402C3.38683 21.4151 3 21.0244 3 20.5424C3 20.0604 3.38683 19.6696 3.86402 19.6696H12.9322C14.6519 15.1822 18.9657 12 24.0154 12C29.5329 12 34.172 15.7993 35.5082 20.9492H33.7107C32.4249 16.7756 28.5704 13.7455 24.0154 13.7455ZM24.0154 34.2545C28.4604 34.2545 32.2383 31.369 33.6131 27.3512C33.665 26.9194 34.0292 26.5849 34.4707 26.5849H44.136C44.6132 26.5849 45 26.9756 45 27.4576C45 27.9396 44.6132 28.3304 44.136 28.3304H35.0985C33.3789 32.8178 29.065 36 24.0154 36C18.4978 36 13.8587 32.2007 12.5225 27.0508H14.32C15.6059 31.2244 19.4603 34.2545 24.0154 34.2545ZM24.2014 30.7119C27.8712 30.7119 30.8462 27.7069 30.8462 24C30.8462 20.2931 27.8712 17.2881 24.2014 17.2881C20.5315 17.2881 17.5565 20.2931 17.5565 24C17.5565 27.7069 20.5315 30.7119 24.2014 30.7119ZM24.2014 28.9664C26.9169 28.9664 29.1182 26.7429 29.1182 24C29.1182 21.2571 26.9169 19.0336 24.2014 19.0336C21.4859 19.0336 19.2845 21.2571 19.2845 24C19.2845 26.7429 21.4859 28.9664 24.2014 28.9664Z" fill="white"/>
</svg>
