<svg width="184" height="48" viewBox="0 0 184 48" fill="none" xmlns="http://www.w3.org/2000/svg">
<path d="M76.0146 10.3067C77.9613 10.3067 79.6679 10.5867 81.1346 11.1467C82.6279 11.6801 83.3746 12.4134 83.3746 13.3467C83.3746 14.2801 83.0146 15.4401 82.2946 16.8267C81.6013 18.1867 81.0146 18.8667 80.5346 18.8667C80.4013 18.8667 80.2413 18.8001 80.0546 18.6667C79.8946 18.5067 79.4946 18.3467 78.8546 18.1867C78.2413 18.0001 77.7079 17.9067 77.2546 17.9067C75.7079 17.9067 74.4546 18.4534 73.4946 19.5467C72.5613 20.6401 72.0946 22.3201 72.0946 24.5867C72.0946 26.8267 72.5746 28.4934 73.5346 29.5867C74.5213 30.6801 75.7613 31.2267 77.2546 31.2267C77.8679 31.2267 78.5479 31.1467 79.2946 30.9867C80.0679 30.8001 80.6146 30.5467 80.9346 30.2267C80.9879 30.1734 81.0946 30.1467 81.2546 30.1467C81.4146 30.1467 81.7079 30.4534 82.1346 31.0667C82.5879 31.6534 83.0013 32.4401 83.3746 33.4267C83.7479 34.3867 83.9346 35.1334 83.9346 35.6667C83.9346 36.7067 83.1346 37.5334 81.5346 38.1467C79.9346 38.7601 78.0413 39.0667 75.8546 39.0667C72.3346 39.0667 69.4413 37.8267 67.1746 35.3467C64.9079 32.8667 63.7746 29.3734 63.7746 24.8667C63.7746 20.3334 64.9346 16.7734 67.2546 14.1867C69.6013 11.6001 72.5213 10.3067 76.0146 10.3067ZM101.916 37.5867C100.236 38.5734 98.0765 39.0667 95.4365 39.0667C92.7965 39.0667 90.5698 38.1734 88.7565 36.3867C86.9431 34.5734 86.0365 32.0801 86.0365 28.9067C86.0365 25.7067 86.9031 23.1334 88.6365 21.1867C90.3965 19.2401 92.6098 18.2667 95.2765 18.2667C97.9431 18.2667 99.9965 18.9467 101.436 20.3067C102.903 21.6667 103.636 23.3201 103.636 25.2667C103.636 29.5867 101.156 31.7467 96.1965 31.7467H93.4365C93.4365 32.5467 93.6498 33.1067 94.0765 33.4267C94.5298 33.7201 95.1831 33.8667 96.0365 33.8667C97.9031 33.8667 99.6765 33.4401 101.356 32.5867C101.383 32.5601 101.503 32.7467 101.716 33.1467C102.356 34.2934 102.676 35.2667 102.676 36.0667C102.676 36.8401 102.423 37.3467 101.916 37.5867ZM96.9165 26.0267C96.9165 24.9067 96.3698 24.3467 95.2765 24.3467C94.7698 24.3467 94.3298 24.5067 93.9565 24.8267C93.6098 25.1201 93.4365 25.5601 93.4365 26.1467V27.3867H95.5965C96.4765 27.3867 96.9165 26.9334 96.9165 26.0267ZM113.53 38.3467C113.53 38.5867 112.17 38.7067 109.45 38.7067C107.316 38.6801 106.25 38.5734 106.25 38.3867V11.1467C106.25 10.7467 107.543 10.5467 110.13 10.5467C112.396 10.6267 113.53 10.7601 113.53 10.9467V38.3467ZM123.708 28.7467C123.708 31.3601 124.695 32.6667 126.668 32.6667C127.948 32.6667 129.015 32.4134 129.868 31.9067C130.268 31.9067 130.588 32.6001 130.828 33.9867C131.095 35.3467 131.228 36.2801 131.228 36.7867C131.228 37.2667 131.161 37.5867 131.028 37.7467C129.615 38.6267 127.681 39.0667 125.228 39.0667C122.775 39.0667 120.681 38.1601 118.948 36.3467C117.241 34.5067 116.388 32.0134 116.388 28.8667C116.388 25.6934 117.228 23.1334 118.908 21.1867C120.615 19.2401 122.868 18.2667 125.668 18.2667C128.495 18.2667 130.455 18.9467 131.548 20.3067C131.788 20.6001 131.908 21.0401 131.908 21.6267C131.908 22.1867 131.801 22.8801 131.588 23.7067C131.108 25.4134 130.481 26.4001 129.708 26.6667C129.601 26.6934 129.441 26.7067 129.228 26.7067C129.041 26.7067 128.801 26.5467 128.508 26.2267C127.468 25.1867 126.628 24.6667 125.988 24.6667C125.375 24.6667 124.841 24.9867 124.388 25.6267C123.935 26.2667 123.708 27.3067 123.708 28.7467ZM141.421 38.4267C141.421 38.6401 140.194 38.7467 137.741 38.7467C135.314 38.7467 134.101 38.6534 134.101 38.4667V18.8267C134.101 18.6401 135.314 18.5467 137.741 18.5467C140.194 18.5467 141.421 18.6267 141.421 18.7867V38.4267ZM141.421 16.4267C141.421 16.6134 140.194 16.7067 137.741 16.7067C135.314 16.7067 134.101 16.6267 134.101 16.4667V10.7067C134.101 10.4401 135.314 10.3067 137.741 10.3067C140.194 10.3067 141.421 10.3867 141.421 10.5467V16.4267ZM144.839 18.9067C144.839 18.6134 145.985 18.4667 148.279 18.4667C150.572 18.4667 151.719 18.6134 151.719 18.9067V30.5867C151.719 31.9201 152.145 32.5867 152.999 32.5867C153.639 32.5867 154.359 32.3067 155.159 31.7467V18.9067C155.159 18.6401 156.292 18.5067 158.559 18.5067C160.825 18.5067 161.959 18.6401 161.959 18.9067V32.0267H162.999C163.905 32.0267 164.359 32.8934 164.359 34.6267C164.359 35.5067 164.172 36.4001 163.799 37.3067C163.265 38.4801 162.545 39.0667 161.639 39.0667C159.852 39.0667 158.532 38.3334 157.679 36.8667L157.639 36.9067C156.012 38.3467 154.265 39.0667 152.399 39.0667C149.812 39.0667 147.905 38.4267 146.679 37.1467C145.452 35.8401 144.839 33.6934 144.839 30.7067V18.9067ZM167.636 31.4667C169.796 32.7734 171.503 33.4267 172.756 33.4267C173.556 33.4267 173.956 33.1467 173.956 32.5867C173.956 32.1867 173.263 31.6667 171.876 31.0267C168.543 29.6667 166.876 27.4401 166.876 24.3467C166.876 22.3734 167.596 20.8667 169.036 19.8267C170.476 18.7867 172.196 18.2667 174.196 18.2667C176.223 18.2667 177.93 18.4801 179.316 18.9067C180.73 19.3334 181.436 19.8934 181.436 20.5867C181.436 21.1734 181.143 21.9467 180.556 22.9067C179.996 23.8667 179.61 24.3867 179.396 24.4667C178.25 23.8267 177.01 23.5067 175.676 23.5067C174.956 23.5067 174.596 23.7601 174.596 24.2667C174.596 24.5867 174.73 24.8667 174.996 25.1067C175.29 25.3201 175.81 25.6001 176.556 25.9467C177.303 26.2667 177.916 26.5601 178.396 26.8267C178.903 27.0934 179.463 27.4667 180.076 27.9467C181.356 28.9601 181.996 30.2801 181.996 31.9067C181.996 34.0401 181.29 35.7734 179.876 37.1067C178.463 38.4134 176.33 39.0667 173.476 39.0667C171.583 39.0667 169.863 38.7467 168.316 38.1067C166.77 37.4667 165.996 36.5867 165.996 35.4667C165.996 34.7201 166.17 33.9334 166.516 33.1067C166.89 32.2801 167.263 31.7334 167.636 31.4667Z" fill="white"/>
<path fill-rule="evenodd" clip-rule="evenodd" d="M10 0C4.47715 0 0 4.47715 0 10V38C0 43.5228 4.47715 48 10 48H38C43.5228 48 48 43.5229 48 38V10C48 4.47715 43.5229 0 38 0H10ZM24.0154 13.7455C19.4603 13.7455 15.6059 16.7756 14.32 20.9492H14.2939C14.1491 21.2262 13.861 21.4151 13.5293 21.4151H3.86402C3.38683 21.4151 3 21.0244 3 20.5424C3 20.0604 3.38683 19.6696 3.86402 19.6696H12.9322C14.6519 15.1822 18.9657 12 24.0154 12C29.5329 12 34.172 15.7993 35.5082 20.9492H33.7107C32.4249 16.7756 28.5704 13.7455 24.0154 13.7455ZM24.0154 34.2545C28.4604 34.2545 32.2383 31.369 33.6131 27.3512C33.665 26.9194 34.0292 26.5849 34.4707 26.5849H44.136C44.6132 26.5849 45 26.9756 45 27.4576C45 27.9396 44.6132 28.3304 44.136 28.3304H35.0985C33.3789 32.8178 29.065 36 24.0154 36C18.4978 36 13.8587 32.2007 12.5225 27.0508H14.32C15.6059 31.2244 19.4603 34.2545 24.0154 34.2545ZM24.2014 30.7119C27.8712 30.7119 30.8462 27.7069 30.8462 24C30.8462 20.2931 27.8712 17.2881 24.2014 17.2881C20.5315 17.2881 17.5565 20.2931 17.5565 24C17.5565 27.7069 20.5315 30.7119 24.2014 30.7119ZM24.2014 28.9664C26.9169 28.9664 29.1182 26.7429 29.1182 24C29.1182 21.2571 26.9169 19.0336 24.2014 19.0336C21.4859 19.0336 19.2845 21.2571 19.2845 24C19.2845 26.7429 21.4859 28.9664 24.2014 28.9664Z" fill="white"/>
</svg>
